# xmcd
#
# Track frame offsets: 
#        150
#        15870
#        27657
#        46342
#        63640
#        76572
#        88715
#        101277
#        112265
#        124942
#        141092
#        159037
#        181640
#        191805
#
# Disc length: 2718 seconds
#
# Revision: 2
# Processed by: cddbd v1.5.2PL0 Copyright (c) Steve Scherf et al.
# Submitted via: ExactAudioCopy v0.99pb4
#
DISCID=aa0a9c0e
DTITLE=Bill Wharton and The Ingredients - Standing In The Fire
DYEAR=1996
DGENRE=Blues
TTITLE0=Sugarbone
TTITLE1=I'm Cookin'
TTITLE2=Mighty Blue Sufi
TTITLE3=Bayou Tango
TTITLE4=Standing In The Fire
TTITLE5=Where's The Rock and Roll?
TTITLE6=Kino Song
TTITLE7=Uncle Willie
TTITLE8=Screamin Woman
TTITLE9=Havana Moon
TTITLE10=Keep It In Your Song
TTITLE11=I'm Through With The Blues
TTITLE12=Dancing In The Coals
TTITLE13=Paco's Garden
EXTD=
EXTT0=
EXTT1=
EXTT2=
EXTT3=
EXTT4=
EXTT5=
EXTT6=
EXTT7=
EXTT8=
EXTT9=
EXTT10=
EXTT11=
EXTT12=
EXTT13=
PLAYORDER=
